<?xml version="1.0" encoding="UTF-8" standalone="no"?>
<svg
   xmlns:dc="http://purl.org/dc/elements/1.1/"
   xmlns:cc="http://creativecommons.org/ns#"
   xmlns:rdf="http://www.w3.org/1999/02/22-rdf-syntax-ns#"
   xmlns:svg="http://www.w3.org/2000/svg"
   xmlns="http://www.w3.org/2000/svg"
   viewBox="0 0 1056 1056"
   height="1056"
   width="1056"
   xml:space="preserve"
   id="svg2"
   version="1.1"><metadata
     id="metadata8"><rdf:RDF><cc:Work
         rdf:about=""><dc:format>image/svg+xml</dc:format><dc:type
           rdf:resource="http://purl.org/dc/dcmitype/StillImage" /></cc:Work></rdf:RDF></metadata><defs
     id="defs6"><clipPath
       id="clipPath18"
       clipPathUnits="userSpaceOnUse"><path
         id="path16"
         d="M 0,792 H 792 V 0 H 0 Z" /></clipPath></defs><g
     transform="matrix(1.3333333,0,0,-1.3333333,0,1056)"
     id="g10"><g
       id="g12"><g
         clip-path="url(#clipPath18)"
         id="g14"><g
           transform="translate(752.1572,309.4521)"
           id="g20"><path
             id="path22"
             style="fill:#3a3867;fill-opacity:1;fill-rule:nonzero;stroke:none"
             d="M 0,0 C 1.153,0 2.183,0.083 2.183,1.463 2.183,2.574 1.174,2.78 0.226,2.78 H -1.627 V 0 Z m -1.576,-4.934 h -1.326 v 8.757 h 3.334 c 2.069,0 3.092,-0.763 3.092,-2.49 0,-1.567 -0.984,-2.25 -2.269,-2.41 l 2.49,-3.857 H 2.259 l -2.31,3.796 h -1.525 z m 1.546,-2.918 c 3.961,0 7.089,3.104 7.089,7.319 0,4.147 -3.128,7.274 -7.089,7.274 -4.009,0 -7.136,-3.127 -7.136,-7.274 0,-4.215 3.127,-7.319 7.136,-7.319 m -8.896,7.319 c 0,5.028 4.078,8.735 8.896,8.735 4.772,0 8.85,-3.707 8.85,-8.735 0,-5.072 -4.078,-8.78 -8.85,-8.78 -4.818,0 -8.896,3.708 -8.896,8.78" /></g><g
           transform="translate(672.6514,409.5464)"
           id="g24"><path
             id="path26"
             style="fill:#3a3867;fill-opacity:1;fill-rule:nonzero;stroke:none"
             d="m 0,0 c 0,-0.896 -0.216,-1.898 -0.506,-2.811 -1.409,-4.103 -5.421,-8.115 -11.729,-8.115 -4.51,0 -8.324,2.702 -8.324,8.414 0,9.426 10.926,11.125 20.559,10.934 z m 8.514,-4.717 v 18.146 c 0,9.733 -3.607,19.854 -18.453,19.854 -5.621,0 -10.976,-1.434 -14.922,-3.714 v -7.145 c 3.519,2.831 9.348,4.545 13.629,4.545 9.922,0 11.016,-7.422 11.016,-11.434 v -1.003 c -18.734,0.099 -29.163,-6.309 -29.163,-18.047 0,-7.022 5.015,-13.935 14.83,-13.935 6.922,0 12.137,3.407 14.839,7.22 h 0.299 l 0.704,-6.109 H 9.317 C 8.713,-13.04 8.514,-8.92 8.514,-4.717" /></g><path
           id="path28"
           style="fill:#3a3867;fill-opacity:1;fill-rule:nonzero;stroke:none"
           d="m 379.145,450.966 h -8.822 v 8.822 h 8.822 z" /><path
           id="path30"
           style="fill:#3a3867;fill-opacity:1;fill-rule:nonzero;stroke:none"
           d="m 370.321,393.198 h 8.82 v 48.521 h -8.82 z" /><path
           id="path32"
           style="fill:#3a3867;fill-opacity:1;fill-rule:nonzero;stroke:none"
           d="m 575.854,450.966 h -8.822 v 8.822 h 8.822 z" /><path
           id="path34"
           style="fill:#3a3867;fill-opacity:1;fill-rule:nonzero;stroke:none"
           d="m 567.031,393.198 h 8.82 v 48.521 h -8.82 z" /><g
           transform="translate(294.1729,460.7773)"
           id="g36"><path
             id="path38"
             style="fill:#3a3867;fill-opacity:1;fill-rule:nonzero;stroke:none"
             d="m 0,0 v -40.007 c 0,-14.938 -6.417,-21.553 -16.439,-21.553 -9.019,0 -15.742,6.416 -15.742,21.553 V 0 h -8.82 v -39.808 c 0,-20.948 10.428,-28.873 24.264,-28.873 14.631,0 25.566,8.522 25.566,29.279 V 0 Z" /></g><g
           transform="translate(340.5679,442.8301)"
           id="g40"><path
             id="path42"
             style="fill:#3a3867;fill-opacity:1;fill-rule:nonzero;stroke:none"
             d="m 0,0 c -8.016,0 -13.636,-4.51 -16.041,-9.127 h -0.198 l -0.498,8.024 h -7.825 c 0.298,-4.012 0.397,-8.124 0.397,-13.131 v -35.398 h 8.829 v 29.181 c 0,1.5 0.199,3.001 0.597,4.111 1.509,4.908 6.018,9.02 11.83,9.02 8.323,0 11.232,-6.516 11.232,-14.333 v -27.979 h 8.821 V -20.65 C 17.144,-4.013 6.715,0 0,0" /></g><g
           transform="translate(424.5322,441.7187)"
           id="g44"><path
             id="path46"
             style="fill:#3a3867;fill-opacity:1;fill-rule:nonzero;stroke:none"
             d="m 0,0 -9.426,-27.273 c -1.607,-4.411 -3.009,-8.423 -4.111,-12.427 h -0.298 c -1.004,4.004 -2.305,8.016 -3.913,12.427 L -27.344,0.008 -36.699,0 -18.245,-48.528 h 8.422 L 9.219,0 Z" /></g><g
           transform="translate(512.4697,442.8296)"
           id="g48"><path
             id="path50"
             style="fill:#3a3867;fill-opacity:1;fill-rule:nonzero;stroke:none"
             d="m 0,0 c -5.937,0 -10.868,-3.424 -13.126,-9.127 h -0.199 l -0.497,8.024 h -7.826 c 0.298,-4.509 0.398,-9.425 0.398,-15.136 v -33.392 h 8.721 v 25.872 c 0,1.501 0.207,2.902 0.406,4.104 1.202,6.623 5.612,11.332 11.829,11.332 1.202,0 2.106,-0.099 3.01,-0.299 v 8.315 C 1.911,-0.099 1.003,0 0,0" /></g><g
           transform="translate(727.1045,413.5503)"
           id="g52"><path
             id="path54"
             style="fill:#3a3867;fill-opacity:1;fill-rule:nonzero;stroke:none"
             d="m 0,0 c 0,-1.401 -0.1,-2.604 -0.397,-3.805 -1.61,-6.615 -7.014,-10.75 -12.933,-10.75 -9.525,0 -14.342,9.206 -14.342,19.038 0,10.727 5.413,18.467 14.541,18.467 6.615,0 11.432,-5.202 12.734,-10.814 C -0.1,11.034 0,9.525 0,8.422 Z m 8.828,-7.817 v 58.65 H 0 V 21.86 h -0.199 c -2.205,3.913 -7.212,7.419 -14.64,7.419 -11.829,0 -21.852,-9.647 -21.752,-25.795 0,-14.731 9.028,-24.938 20.749,-24.938 7.925,0 13.835,4.112 16.546,9.525 h 0.199 l 0.407,-8.423 h 7.917 c -0.299,3.308 -0.399,8.224 -0.399,12.535" /></g><g
           transform="translate(522.1025,396.4844)"
           id="g56"><path
             id="path58"
             style="fill:#3a3867;fill-opacity:1;fill-rule:nonzero;stroke:none"
             d="M 0,0 V 8.309 C 4.741,4.825 12.07,2.528 17.047,2.528 c 5.609,-0.017 9.528,2.854 9.528,7.508 0,4.653 -5.203,6.328 -11.681,8.236 -7.915,2.33 -15.366,5.762 -15.366,14.445 0,9.028 7.191,13.629 17.886,13.629 5.295,0 10.608,-1.872 13.551,-3.719 l 0.001,-7.136 c 0,0 -6.564,4.53 -14.129,4.53 -5.483,0 -9.66,-2.821 -9.66,-6.666 0,-3.844 4.247,-5.804 11.147,-7.94 7.811,-2.418 15.822,-5.23 15.822,-14.635 0,-9.405 -7.291,-15.168 -18.388,-15.168 C 11.25,-4.388 5.796,-3.071 0,0" /></g><g
           transform="translate(492.2305,350.7998)"
           id="g60"><path
             id="path62"
             style="fill:#3a3867;fill-opacity:1;fill-rule:nonzero;stroke:none"
             d="M 0,0 H 15.73 L 15.729,-50.66 H 0 Z M 15.73,7.598 H 0 v 12.959 h 15.73 z" /></g><g
           transform="translate(663.293,350.7998)"
           id="g64"><path
             id="path66"
             style="fill:#3a3867;fill-opacity:1;fill-rule:nonzero;stroke:none"
             d="M 0,0 H 15.729 V -50.66 H -0.001 Z M 15.729,7.598 H 0 v 12.959 h 15.729 z" /></g><g
           transform="translate(520.7021,373.6943)"
           id="g68"><path
             id="path70"
             style="fill:#3a3867;fill-opacity:1;fill-rule:nonzero;stroke:none"
             d="M 0,0 H 15.729 V -73.555 H -0.001 Z" /></g><g
           transform="translate(402.792,334.6387)"
           id="g72"><path
             id="path74"
             style="fill:#3a3867;fill-opacity:1;fill-rule:nonzero;stroke:none"
             d="M 0,0 C 0,6.319 -0.207,11.706 -0.414,16.161 H 13.26 l 0.725,-6.837 h 0.311 c 2.176,3.211 6.399,8.268 15.332,8.268 6.784,0 11.707,-3.607 13.883,-8.891 H 43.9 c 3.637,4.875 8.566,8.891 16.317,8.891 9.443,0 17.569,-7.129 17.569,-22.254 V -34.499 H 62.047 v 28.554 c 0,7.355 -2.383,11.603 -7.46,11.603 -4.702,0 -7.873,-4.226 -7.873,-9.531 V -34.499 H 30.976 v 29.383 c 0,6.422 -2.281,10.774 -7.253,10.774 -4.905,0 -7.977,-4.453 -7.977,-9.635 v -30.522 l -15.746,0 z" /></g><g
           transform="translate(603.5703,334.6387)"
           id="g76"><path
             id="path78"
             style="fill:#3a3867;fill-opacity:1;fill-rule:nonzero;stroke:none"
             d="M 0,0 C 0,6.319 -0.207,11.706 -0.414,16.161 H 13.26 L 13.985,9.22 h 0.312 c 2.072,3.212 7.036,8.372 15.642,8.372 10.725,0 18.131,-7.129 18.131,-22.047 V -34.499 H 32.323 v 29.176 c 0,6.526 -2.279,10.981 -7.977,10.981 -5.273,0 -8.599,-4.582 -8.599,-9.842 v -30.315 l -15.747,0 z" /></g><g
           transform="translate(714.7715,310.6426)"
           id="g80"><path
             id="path82"
             style="fill:#3a3867;fill-opacity:1;fill-rule:nonzero;stroke:none"
             d="m 0,0 c -6.734,0 -10.36,6.119 -10.36,14.822 0,8.703 3.626,14.822 10.36,14.822 6.733,0 10.359,-6.119 10.359,-14.822 C 10.359,6.119 6.733,0 0,0 m 0.414,41.588 c -16.266,0 -27.04,-10.578 -27.04,-27.127 0,-16.55 11.397,-26.396 26.21,-26.396 13.572,0 26.187,8.589 26.187,27.339 0,15.397 -9.817,26.184 -25.357,26.184" /></g><g
           transform="translate(623.6211,413.5503)"
           id="g84"><path
             id="path86"
             style="fill:#3a3867;fill-opacity:1;fill-rule:nonzero;stroke:none"
             d="m 0,0 c 0,-1.401 -0.1,-2.603 -0.397,-3.805 -1.609,-6.615 -7.014,-10.75 -12.933,-10.75 -9.524,0 -14.341,9.206 -14.341,19.038 0,10.727 5.413,18.467 14.54,18.467 6.615,0 11.432,-5.202 12.734,-10.814 C -0.1,11.034 0,9.525 0,8.422 Z m 8.829,-7.817 v 58.65 H 0 V 21.86 h -0.198 c -2.206,3.913 -7.213,7.419 -14.64,7.419 -11.83,0 -21.852,-9.647 -21.753,-25.795 0,-14.731 9.028,-24.938 20.749,-24.938 7.926,0 13.836,4.112 16.547,9.525 h 0.198 l 0.408,-8.423 h 7.916 c -0.298,3.308 -0.398,8.224 -0.398,12.535" /></g><g
           transform="translate(299.2021,369.9648)"
           id="g88"><path
             id="path90"
             style="fill:#3a3867;fill-opacity:1;fill-rule:nonzero;stroke:none"
             d="m 0,0 h -53.663 v -13.26 h 18.958 v -56.565 h 15.747 v 56.565 l 18.958,0 z" /></g><g
           transform="translate(350.1304,325.4697)"
           id="g92"><path
             id="path94"
             style="fill:#3a3867;fill-opacity:1;fill-rule:nonzero;stroke:none"
             d="m 0,0 c 0,-16.123 11.293,-26.761 28.017,-26.761 5.457,0 10.116,0.846 13.085,1.96 v 12.194 c -2.428,-1.438 -6.246,-2.213 -10.276,-2.213 -8.084,0 -14.517,5.025 -14.517,14.82 0,9.795 6.433,14.82 14.517,14.82 4.03,0 7.848,-0.775 10.276,-2.212 v 12.193 c -2.969,1.115 -7.628,1.96 -13.085,1.96 C 11.293,26.761 0,16.123 0,0" /></g><g
           transform="translate(471.7852,422.167)"
           id="g96"><path
             id="path98"
             style="fill:#3a3867;fill-opacity:1;fill-rule:nonzero;stroke:none"
             d="m 0,0 h -25.765 c 0.705,6.11 4.61,14.333 13.53,14.333 C -2.305,14.333 0.091,5.612 0,0 m 8.514,-2.205 c 0,8.929 -4.195,22.863 -20.045,22.863 -14.134,0 -22.755,-11.539 -22.755,-26.17 0,-14.64 8.772,-24.563 24.111,-24.563 9.503,0 15.132,3.554 15.132,3.554 v 8.309 c 0,0 -5.998,-4.949 -14.544,-4.949 -7.916,0 -16.078,4.907 -16.277,16.845 H 8.224 c 0.09,0.903 0.29,2.304 0.29,4.111" /></g><g
           transform="translate(309.9365,329.9346)"
           id="g100"><path
             id="path102"
             style="fill:#3a3867;fill-opacity:1;fill-rule:nonzero;stroke:none"
             d="m 0,0 c 0.4,4.283 3.05,10.362 9.582,10.362 7.126,0 8.759,-6.489 8.759,-10.362 z m 32.866,-3.262 c 0,12.673 -6.821,25.558 -23.178,25.558 -17.598,0 -25.567,-14.352 -25.567,-27.342 0,-15.446 11.923,-26.18 28.489,-26.18 5.834,0 12.145,1.132 16.368,3.61 l -0.005,11.624 c -3.595,-2.34 -9.274,-3.296 -13.591,-3.296 -7.969,0 -14.505,2.812 -15.38,9.736 h 32.342 c 0.209,1.151 0.522,3.568 0.522,6.29" /></g><g
           transform="translate(561.4424,329.9346)"
           id="g104"><path
             id="path106"
             style="fill:#3a3867;fill-opacity:1;fill-rule:nonzero;stroke:none"
             d="m 0,0 c 0.4,4.283 3.05,10.362 9.582,10.362 7.126,0 8.759,-6.489 8.759,-10.362 z m 32.866,-3.262 c 0,12.673 -6.821,25.558 -23.178,25.558 -17.598,0 -25.567,-14.352 -25.567,-27.342 0,-15.446 11.924,-26.18 28.489,-26.18 5.834,0 12.145,1.132 16.368,3.61 l -0.005,11.624 c -3.595,-2.34 -9.274,-3.296 -13.591,-3.296 -7.969,0 -14.505,2.812 -15.379,9.736 h 32.341 c 0.209,1.151 0.522,3.568 0.522,6.29" /></g><g
           transform="translate(135.7935,420.5005)"
           id="g108"><path
             id="path110"
             style="fill:#469850;fill-opacity:1;fill-rule:nonzero;stroke:none"
             d="m 0,0 c -4.498,-6.285 -8.257,-13.104 -11.153,-20.354 -2.896,7.25 -6.655,14.069 -11.153,20.354 3.245,5.792 6.984,11.297 11.153,16.432 C -6.983,11.297 -3.245,5.792 0,0 m 82.465,59.091 v 13.7 h -4.313 c -34.65,0 -66.137,-13.802 -89.305,-36.149 -23.168,22.347 -54.655,36.149 -89.305,36.149 h -4.313 v -13.7 h 4.293 c 31.056,0 59.276,-12.384 79.98,-32.451 -4.067,-4.889 -7.785,-10.065 -11.132,-15.487 -17.479,17.93 -41.859,29.104 -68.828,29.125 h -4.313 v -13.7 h 4.293 c 23.702,0 46.008,-10.126 62.008,-28.18 -3.163,-6.757 -5.751,-13.802 -7.702,-21.135 -11.194,18.259 -31.343,30.481 -54.286,30.481 h -4.313 v -13.7 h 4.293 c 27.543,0 49.952,-22.409 49.952,-49.952 v -64.452 h 13.699 v 64.452 c 0,14.563 2.732,28.489 7.681,41.325 7.066,-12.159 11.133,-26.269 11.133,-41.325 v -64.452 h 13.721 v 64.452 c 0,15.056 4.066,29.166 11.131,41.325 4.951,-12.836 7.682,-26.762 7.682,-41.325 v -64.452 h 13.7 v 64.452 c 0,27.543 22.408,49.952 49.951,49.952 h 4.293 v 13.7 h -4.313 c -22.943,0 -43.091,-12.222 -54.285,-30.481 -1.951,7.333 -4.539,14.378 -7.702,21.135 16,18.054 38.305,28.18 62.007,28.18 h 4.293 v 13.7 H 78.152 C 51.184,40.257 26.804,29.083 9.325,11.153 5.977,16.575 2.259,21.751 -1.807,26.64 18.896,46.707 47.117,59.091 78.172,59.091 Z" /></g></g></g></g></svg>